<svg width="56" height="58" viewBox="0 0 56 58" fill="none" xmlns="http://www.w3.org/2000/svg">
<path d="M41.7658 1.16C41.7658 0.691063 42.1443 0.30851 42.6151 0.30851C43.0828 0.30851 43.4643 0.687978 43.4643 1.16C43.4643 1.62894 43.0858 2.01149 42.6151 2.01149C42.1443 2.0084 41.7658 1.62894 41.7658 1.16ZM47.5689 1.16C47.5689 0.691063 47.1904 0.30851 46.7197 0.30851C46.252 0.30851 45.8704 0.687978 45.8704 1.16C45.8704 1.62894 46.2489 2.01149 46.7197 2.01149C47.1904 2.0084 47.5689 1.62894 47.5689 1.16ZM55.8181 12.362C55.8181 13.6578 55.3135 14.8733 54.3997 15.7927C53.4551 16.7367 52.2181 17.2087 50.9781 17.2087C49.852 17.2087 48.7351 16.7984 47.8304 16.0148C46.9904 16.9773 45.932 17.943 45.2766 18.5137C45.1012 18.668 44.8827 18.742 44.6674 18.742C44.4489 18.742 44.2335 18.6649 44.0581 18.5137C43.4028 17.943 42.3443 16.9773 41.5043 16.0148C40.5997 16.7984 39.4828 17.2087 38.3566 17.2087C37.1166 17.2087 35.8797 16.7367 34.9351 15.7927C34.0212 14.8764 33.5166 13.6578 33.5166 12.362C33.5166 11.0663 34.0212 9.85074 34.9351 8.93138C35.9443 7.91947 37.572 7.47521 39.0889 7.29011C39.7504 5.86479 40.9443 4.74489 42.4058 4.15872C42.3289 4.07851 42.2489 4.01064 42.1812 3.915C41.9166 3.5417 42.052 3.03883 42.4428 2.84755C42.8212 2.66245 43.2397 2.77042 43.4643 3.05734C43.7966 3.48308 44.1689 3.71755 44.6704 3.71755C45.1751 3.71755 45.5474 3.48308 45.8766 3.05734C46.1012 2.77042 46.5197 2.65936 46.8981 2.84755C47.2889 3.04191 47.4243 3.5417 47.1597 3.915C47.092 4.01064 47.012 4.07851 46.9351 4.15872C48.3966 4.74489 49.5904 5.86479 50.252 7.29011C51.7689 7.47521 53.3935 7.91947 54.4058 8.93138C55.3166 9.84766 55.8181 11.0632 55.8181 12.362ZM40.852 7.20681H44.6674H44.7751H48.4828C47.6397 6.00053 46.2458 5.20457 44.6674 5.20457C43.0889 5.20457 41.6981 6.00053 40.852 7.20681ZM40.0058 9.8816C40.0058 10.1685 40.0489 10.4585 40.1135 10.7516H44.6674H44.7751H49.2212C49.2858 10.4585 49.3289 10.1654 49.3289 9.8816C49.3289 9.47436 49.2612 9.08255 49.1627 8.70617H44.7751H44.6674H40.172C40.0735 9.08255 40.0058 9.47436 40.0058 9.8816ZM40.5658 14.8548C39.452 13.3585 38.5104 11.5938 38.5104 9.8816C38.5104 9.53915 38.5443 9.20596 38.5997 8.87585C37.5566 9.06404 36.5812 9.40032 35.9935 9.99266C35.3628 10.6251 35.0151 11.4673 35.0151 12.362C35.0151 13.2567 35.3628 14.0989 35.9935 14.7314C37.2458 15.987 39.2551 16.024 40.5658 14.8548ZM46.0858 15.7094H44.7751H44.6674H43.2489C43.8058 16.2924 44.3166 16.7676 44.6674 17.0791C45.0151 16.7706 45.5289 16.2924 46.0858 15.7094ZM48.6643 12.251H44.7751H44.6674H40.6704C41.0151 12.9297 41.4612 13.593 41.9443 14.21H44.6674H44.7751H47.3904C47.8704 13.5961 48.3166 12.9297 48.6643 12.251ZM54.3227 12.362C54.3227 11.4673 53.9751 10.6251 53.3443 9.99266C52.7566 9.4034 51.7812 9.06404 50.7381 8.87585C50.7904 9.20287 50.8274 9.53606 50.8274 9.8816C50.8274 11.5938 49.8858 13.3585 48.772 14.8548C50.0827 16.0271 52.092 15.9901 53.3474 14.7314C53.9751 14.0959 54.3227 13.2567 54.3227 12.362Z" fill="#161616"/>
<path d="M32.6831 33.7696C32.2308 33.2389 31.9908 32.5664 31.8493 31.7859C31.7478 31.2182 31.7416 30.558 31.8524 29.6818C31.9724 28.7193 32.3939 27.9449 33.0524 27.3803C33.7508 26.7787 34.6308 26.4764 35.6678 26.4764C36.637 26.4764 37.4708 26.7633 38.1416 27.331L38.1601 27.3464C39.0985 28.1454 38.5324 29.6818 37.3016 29.6818H34.8185C34.2954 29.6818 33.8124 30.0397 33.7293 30.558C33.6216 31.2182 34.1262 31.7859 34.7631 31.7859H37.3108C41.7324 31.7859 42.7816 26.4764 38.3662 24.4988C37.5416 24.1286 36.6093 23.9836 35.637 23.9836C34.6616 23.9836 33.7354 24.1564 32.8831 24.4957C32.0278 24.8382 31.2831 25.3287 30.6739 25.9612C30.0616 26.5905 29.5847 27.3402 29.2524 28.1886C28.9201 29.0339 28.7539 29.9595 28.7539 30.9374C28.7539 31.9833 28.9478 32.9551 29.3324 33.8189C29.717 34.6859 30.2585 35.4201 30.9416 36.0001C31.2339 36.2469 31.7785 36.5863 32.3539 36.83C33.157 37.1694 34.1108 36.7313 34.2462 35.8428C34.3262 35.3214 34.0893 34.8031 33.6431 34.5223C33.2985 34.3126 32.9108 34.038 32.6831 33.7696Z" fill="#161616"/>
<path d="M36.3631 36.2346C36.2523 37.0614 36.9569 37.7833 37.7785 37.6599C39.8985 37.3421 41.4246 36.4444 42.52 35.1825C42.9631 34.6704 42.8154 33.8775 42.2308 33.5382C41.8308 33.3068 41.3354 33.3654 40.9785 33.6585C40.0769 34.4051 38.9292 34.9388 37.4585 35.1455C36.8923 35.2288 36.44 35.6638 36.3631 36.2346Z" fill="#161616"/>
<path d="M44.7227 20.5561C44.4396 20.5561 44.2119 20.7874 44.2119 21.0713C44.2119 21.6081 44.2119 22.0091 44.2119 22.0246C44.2119 22.4688 44.2181 23.0087 44.215 23.6103C44.2119 23.9003 44.4488 24.1379 44.7381 24.1379C45.0273 24.1379 45.2611 23.9003 45.2611 23.6134C45.2581 22.9069 45.2458 21.7315 45.2365 21.0589C45.2304 20.7782 45.0027 20.5561 44.7227 20.5561Z" fill="#161616"/>
<path d="M44.0579 26.6276C43.9102 27.9758 43.6272 29.3887 43.0948 30.6721C42.941 31.0454 43.1164 31.4743 43.4856 31.6409C43.9133 31.8321 44.4056 31.5915 44.5287 31.138C44.9072 29.7312 45.0948 28.2195 45.1872 26.7139C45.2056 26.39 44.9441 26.1154 44.621 26.1154C44.3287 26.1154 44.0887 26.3376 44.0579 26.6276Z" fill="#161616"/>
<path d="M11.1353 40.3624H2.41223C1.25223 40.3624 0.307617 41.3096 0.307617 42.4727V55.8373C0.307617 56.7073 1.01531 57.4169 1.883 57.4169C2.75069 57.4169 3.45839 56.7073 3.45839 55.8373V50.1978H9.50146C10.2276 50.1978 10.8184 49.6054 10.8184 48.8773C10.8184 48.1492 10.2276 47.5538 9.50146 47.5538H3.45839V43.2809C3.45839 43.173 3.54762 43.0835 3.65531 43.0835H11.1353C11.883 43.0835 12.4922 42.4727 12.4922 41.723C12.4922 40.9733 11.883 40.3624 11.1353 40.3624Z" fill="#FAC000"/>
<path d="M27.1692 54.7483C27.0061 54.6681 26.6307 54.4367 26.6307 53.9924V45.6133C26.6307 44.8482 26.0092 44.225 25.2492 44.225C24.4953 44.225 23.883 44.8297 23.8676 45.5824C23.3292 45.1104 22.7138 44.7248 22.0307 44.4317C21.2338 44.0893 20.3722 43.9165 19.4646 43.9165C18.5415 43.9165 17.6584 44.0954 16.8461 44.444C16.0338 44.7957 15.3199 45.2924 14.7261 45.9218C14.1322 46.5512 13.6676 47.2978 13.3446 48.1369C13.0215 48.9761 12.8584 49.8769 12.8584 50.821C12.8584 51.7465 13.043 52.6967 13.4092 53.6469C13.7753 54.6033 14.3353 55.4116 15.0707 56.0533C15.803 56.6919 16.5507 57.1362 17.2953 57.3706C18.9938 57.9105 20.6153 57.8149 22.0399 57.2102C22.763 56.9017 23.4092 56.4883 23.963 55.9762C24.123 56.476 24.3969 56.8832 24.7815 57.1917C25.2276 57.5465 25.7815 57.7285 26.4307 57.7285C26.5353 57.7285 26.6492 57.7223 26.7661 57.7069C27.2061 57.6545 27.5969 57.4015 27.8399 57.0159C28.0953 56.6055 28.1507 56.1088 27.9938 55.6522C27.8584 55.2604 27.5661 54.9396 27.1692 54.7483ZM23.7876 50.821C23.7876 52.0982 23.4122 53.1194 22.6738 53.8598C21.9353 54.6002 21.003 54.9766 19.8984 54.9766C19.3384 54.9766 18.7476 54.8409 18.1446 54.5786C17.5507 54.3164 17.0399 53.8382 16.6307 53.1564C16.2184 52.4715 16.0092 51.6848 16.0092 50.824C16.0092 50.1114 16.1384 49.4759 16.3938 48.9421C16.6492 48.4053 16.9722 47.9549 17.3507 47.6094C17.7261 47.2669 18.1446 47.0201 18.5938 46.8813C19.0492 46.7394 19.4953 46.6684 19.9261 46.6684C20.7322 46.6684 21.4338 46.8566 22.0061 47.2237C22.5815 47.5939 23.0246 48.0876 23.3292 48.6861C23.6338 49.2907 23.7876 50.0096 23.7876 50.821Z" fill="#FAC000"/>
<path d="M13.7415 32.8656C13.7415 32.1036 13.5661 31.4249 13.2184 30.8542C12.8768 30.2927 12.4707 29.8237 12.0122 29.4628C11.643 29.1728 11.2522 28.926 10.8461 28.7316C11.2461 28.5033 11.6092 28.2164 11.9261 27.877C12.3168 27.4575 12.5907 27.007 12.7445 26.5319C12.8953 26.063 12.9692 25.6187 12.9692 25.2115C12.9692 24.2088 12.7445 23.3543 12.3015 22.6786C11.8584 22.003 11.2092 21.4816 10.3692 21.1268C9.53839 20.7782 8.47992 20.5993 7.21223 20.5993H1.79069C0.972233 20.5993 0.307617 21.2687 0.307617 22.0894V36.1667C0.307617 36.9873 0.972233 37.6537 1.79069 37.6537H7.47377C8.79069 37.6537 9.91685 37.4717 10.8184 37.1138C11.7322 36.7529 12.4553 36.2099 12.9661 35.5034C13.483 34.7938 13.7415 33.9053 13.7415 32.8656ZM3.45839 30.1261H7.57839C8.483 30.1261 9.21839 30.3544 9.77223 30.8017C10.323 31.249 10.5907 31.8321 10.5907 32.5818C10.5907 33.3315 10.323 33.9146 9.77223 34.3588C9.21839 34.8062 8.47992 35.0345 7.57839 35.0345H3.45839V30.1261ZM9.05223 27.1181C8.56916 27.5161 7.883 27.7166 7.01223 27.7166H3.45839V23.2185H7.01223C7.883 23.2185 8.56608 23.419 9.05223 23.817C9.53531 24.2119 9.76916 24.7518 9.76916 25.4676C9.76916 26.1833 9.53531 26.7232 9.05223 27.1181Z" fill="#161616"/>
<path d="M38.7142 51.1603C38.3634 50.8549 38.0003 50.5957 37.6342 50.3952C37.2649 50.1947 36.9142 50.0281 36.588 49.8985C36.2619 49.7689 35.9203 49.6394 35.5695 49.5098C35.2219 49.3833 35.0157 49.3031 34.9419 49.2661C34.1695 48.9637 33.6095 48.683 33.2803 48.4331C32.9757 48.2048 32.8249 47.921 32.8249 47.5723C32.8249 47.2052 32.9726 46.9152 33.2803 46.6869C33.5942 46.4494 34.0403 46.329 34.6034 46.329C35.1603 46.329 35.7019 46.4494 36.2126 46.69C36.4619 46.8072 36.6957 46.9461 36.908 47.1003C37.3665 47.4397 37.9849 47.4181 38.4095 47.0448L38.4957 46.9707C38.7757 46.7239 38.9234 46.3722 38.9049 46.002C38.8865 45.6195 38.6926 45.2739 38.3788 45.0518C38.0803 44.8389 37.7388 44.6477 37.3665 44.4841C36.5111 44.1078 35.5634 43.9165 34.5572 43.9165C33.1234 43.9165 31.9511 44.2744 31.0711 44.9808C30.1819 45.6935 29.7295 46.6283 29.7295 47.7513C29.7295 48.1801 29.8249 48.6336 30.0095 49.0964C30.1972 49.5684 30.5819 50.0157 31.1542 50.423C31.7111 50.824 32.6403 51.2652 33.9142 51.7311C34.908 52.1044 35.5942 52.4098 35.9542 52.6443C36.2926 52.8664 36.5019 53.0823 36.5757 53.289C36.6557 53.5143 36.6957 53.687 36.6957 53.8073C36.6957 54.2423 36.5019 54.5879 36.1019 54.8717C35.6926 55.1617 35.1542 55.3067 34.5049 55.3067C33.828 55.3067 33.1788 55.1432 32.5695 54.8223C32.2649 54.6619 31.9849 54.4768 31.7419 54.2763C31.2526 53.8721 30.5757 53.869 30.1295 54.2701L30.0834 54.3133C29.8126 54.5539 29.6649 54.8995 29.6711 55.2635C29.6803 55.609 29.8342 55.9299 30.0988 56.1428C30.5295 56.4914 31.028 56.7968 31.5788 57.0529C32.5449 57.4971 33.6003 57.7223 34.7142 57.7223C35.6003 57.7223 36.4619 57.5681 37.2742 57.2627C38.0957 56.9541 38.7357 56.476 39.1818 55.8404C39.6249 55.208 39.8526 54.4984 39.8526 53.7302C39.8526 53.2119 39.7542 52.7276 39.5572 52.2895C39.3542 51.8576 39.0742 51.475 38.7142 51.1603Z" fill="#FAC000"/>
<path d="M49.3689 55.6522C49.1351 55.1278 48.5751 54.8285 47.972 54.9118C47.5905 54.9674 46.8858 54.9735 46.4458 54.4275C46.1258 54.0356 45.9658 53.4711 45.9658 52.7553V46.7178H48.6335C49.3197 46.7178 49.8735 46.1594 49.8735 45.4745C49.8735 44.7865 49.3166 44.2312 48.6335 44.2312H45.9658V41.8742C45.9658 41.4392 45.7812 41.0196 45.4612 40.7265C45.1412 40.4334 44.7012 40.2884 44.2735 40.3254C43.4705 40.3995 42.8643 41.0659 42.8643 41.8742V44.2312H41.9197C41.2335 44.2312 40.6797 44.7896 40.6797 45.4745C40.6797 46.1625 41.2366 46.7178 41.9197 46.7178H42.8643V52.962C42.8643 54.4059 43.2889 55.572 44.1289 56.4297C44.9689 57.2904 46.0551 57.7254 47.3597 57.7254C47.6058 57.7254 48.0828 57.6761 48.5474 57.5712C48.9228 57.4848 49.2366 57.238 49.4089 56.8925C49.5812 56.5469 49.5905 56.1489 49.4335 55.7972L49.3689 55.6522Z" fill="#FAC000"/>
<path d="M27.0921 34.402C26.6398 33.9824 25.9567 33.9578 25.4367 34.3403C25.1259 34.5686 24.7628 34.7661 24.3597 34.9327C23.6182 35.2319 22.8644 35.3862 22.1136 35.3862C22.1044 35.3862 22.0951 35.3862 22.089 35.3862C21.9782 35.3862 21.8644 35.38 21.7444 35.3677C21.6336 35.3584 21.5197 35.3399 21.4028 35.3214C21.3874 35.3183 21.3721 35.3183 21.3567 35.3152C21.0921 35.2689 20.8121 35.198 20.5198 35.1054C20.4828 35.0931 20.449 35.0869 20.4121 35.0746C19.7905 34.8679 19.2274 34.4761 18.7444 33.9084C18.2921 33.3778 18.0121 32.7114 17.9105 31.9247H23.3782C27.7998 31.9247 28.849 26.6152 24.4336 24.6377C23.609 24.2674 22.6767 24.1224 21.7044 24.1224C20.729 24.1224 19.8028 24.2952 18.9505 24.6346C18.0951 24.977 17.3505 25.4675 16.7413 26.1C16.129 26.7294 15.6521 27.479 15.3198 28.3274C14.9874 29.1728 14.8213 30.0983 14.8213 31.0763C14.8213 32.1221 15.0151 33.0939 15.3998 33.9578C15.7844 34.8247 16.3259 35.5589 17.009 36.1389C17.689 36.7158 18.4736 37.1632 19.3444 37.4686C19.9659 37.6846 20.609 37.8234 21.2674 37.8851C21.2767 37.8851 21.2859 37.8882 21.2921 37.8882C21.5474 37.9129 21.8028 37.9252 22.0613 37.9252H22.0644C22.5659 37.9252 23.1813 37.8604 23.889 37.7308C24.6028 37.5982 25.3474 37.336 26.1044 36.9441C26.4182 36.7806 26.7136 36.5955 26.9813 36.395C27.2921 36.1605 27.4828 35.8057 27.5044 35.417C27.5228 35.0314 27.3721 34.6612 27.0921 34.402ZM19.1105 27.513C19.809 26.9114 20.689 26.609 21.7259 26.609C22.6951 26.609 23.529 26.896 24.1998 27.4636C24.2059 27.4698 24.2121 27.4729 24.2182 27.479C25.1444 28.275 24.5074 29.8176 23.289 29.8176H17.9105C18.049 28.8519 18.4521 28.0806 19.1105 27.513Z" fill="#161616"/>
</svg>
